<svg viewBox="0 0 640 400" data-background-color="#ffffff" preserveAspectRatio="xMidYMid meet" width="640" xmlns="http://www.w3.org/2000/svg" xmlns:xlink="http://www.w3.org/1999/xlink"><g id="tight-bounds" transform="matrix(1,0,0,1,205.85176470588235,76.4)"><svg viewBox="0 0 228.2964705882353 247.2" height="247.2" width="228.2964705882353"><g><svg viewBox="0 0 228.2964705882353 247.2" height="247.2" width="228.2964705882353"><g><svg viewBox="0 0 228.2964705882353 247.2" height="247.2" width="228.2964705882353"><g id="textblocktransform"><svg viewBox="0 0 228.2964705882353 247.2" height="247.2" width="228.2964705882353" id="textblock"><g><svg viewBox="0 0 228.2964705882353 247.2" height="247.2" width="228.2964705882353"><g transform="matrix(1,0,0,1,0,0)"><svg width="228.2964705882353" viewBox="1.7999999523162842 -33.5 31.400001525878906 34" height="247.2" data-palette-color="#4790fc"><path d="M24.1-12.25L33.2-9.8Q32.3-6.15 30.18-3.85 28.05-1.55 25.03-0.53 22 0.5 18.35 0.5L18.35 0.5Q13.25 0.5 9.53-1.53 5.8-3.55 3.8-7.35 1.8-11.15 1.8-16.5L1.8-16.5Q1.8-21.85 3.8-25.65 5.8-29.45 9.53-31.48 13.25-33.5 18.3-33.5L18.3-33.5Q21.9-33.5 24.93-32.5 27.95-31.5 30.05-29.4 32.15-27.3 32.9-23.95L32.9-23.95 24.05-20.4Q23.5-23.6 22.13-24.65 20.75-25.7 18.6-25.7L18.6-25.7Q16.6-25.7 15.18-24.68 13.75-23.65 13.03-21.63 12.3-19.6 12.3-16.5L12.3-16.5Q12.3-13.45 12.98-11.4 13.65-9.35 15.08-8.33 16.5-7.3 18.8-7.3L18.8-7.3Q20.85-7.3 22.25-8.5 23.65-9.7 24.1-12.25L24.1-12.25Z" opacity="1" transform="matrix(1,0,0,1,0,0)" fill="#4790fc" class="wordmark-text-0" data-fill-palette-color="primary" id="text-0"></path></svg></g></svg></g></svg></g></svg></g></svg></g><defs></defs></svg><rect width="228.2964705882353" height="247.2" fill="none" stroke="none" visibility="hidden"></rect></g></svg>
